<svg preserveAspectRatio="none" width="100%" height="100%" overflow="visible" style="display: block;" viewBox="0 0 90 90" fill="none" xmlns="http://www.w3.org/2000/svg">
<g id="Circulo e Icone">
<circle id="Ellipse 3" cx="45" cy="45" r="45" fill="var(--fill-0, #005CFF)"/>
<g id="map-pin">
<path id="Vector" d="M63 44.1818C63 57.5455 45.75 69 45.75 69C45.75 69 28.5 57.5455 28.5 44.1818C28.5 39.6249 30.3174 35.2547 33.5524 32.0324C36.7874 28.8102 41.175 27 45.75 27C50.325 27 54.7126 28.8102 57.9476 32.0324C61.1826 35.2547 63 39.6249 63 44.1818Z" stroke="var(--stroke-0, white)" stroke-width="1.81818" stroke-linecap="round" stroke-linejoin="round"/>
<path id="Vector_2" d="M45 51C48.3137 51 51 48.3137 51 45C51 41.6863 48.3137 39 45 39C41.6863 39 39 41.6863 39 45C39 48.3137 41.6863 51 45 51Z" stroke="var(--stroke-0, white)" stroke-width="1.81818" stroke-linecap="round" stroke-linejoin="round"/>
</g>
</g>
</svg>
