<svg preserveAspectRatio="none" width="100%" height="100%" overflow="visible" style="display: block;" viewBox="0 0 90 90" fill="none" xmlns="http://www.w3.org/2000/svg">
<g id="Circulo e Icone">
<circle id="Ellipse 3" cx="45" cy="45" r="45" fill="var(--fill-0, #005CFF)"/>
<g id="map-pin">
<path id="Vector" d="M62 41.1818C62 54.5455 44.75 66 44.75 66C44.75 66 27.5 54.5455 27.5 41.1818C27.5 36.6249 29.3174 32.2547 32.5524 29.0324C35.7874 25.8102 40.175 24 44.75 24C49.325 24 53.7126 25.8102 56.9476 29.0324C60.1826 32.2547 62 36.6249 62 41.1818Z" stroke="var(--stroke-0, white)" stroke-width="1.81818" stroke-linecap="round" stroke-linejoin="round"/>
<path id="Vector_2" d="M44 48C47.3137 48 50 45.3137 50 42C50 38.6863 47.3137 36 44 36C40.6863 36 38 38.6863 38 42C38 45.3137 40.6863 48 44 48Z" stroke="var(--stroke-0, white)" stroke-width="1.81818" stroke-linecap="round" stroke-linejoin="round"/>
</g>
</g>
</svg>
