<svg preserveAspectRatio="none" width="100%" height="100%" overflow="visible" style="display: block;" viewBox="0 0 153.131 27.0806" fill="none" xmlns="http://www.w3.org/2000/svg">
<g id="Vector">
<path d="M151.194 0.0037202C150.215 0.0869401 149.468 0.910048 149.483 1.88852V25.1911C149.468 26.1698 150.215 26.9933 151.194 27.0765C151.697 27.1075 152.189 26.9302 152.556 26.5867C152.923 26.2432 153.131 25.764 153.131 25.2625L153.131 1.81776C153.131 1.31614 152.923 0.836833 152.556 0.493315C152.19 0.149798 151.697 -0.0273856 151.194 0.0037202Z" fill="var(--fill-0, black)"/>
<path d="M51.8899 0.195048C50.9788 -0.259412 49.8705 0.108166 49.4145 1.01601L39.2216 21.31C39.22 21.3134 39.2165 21.3155 39.2127 21.3155C39.2089 21.3155 39.2055 21.3134 39.2038 21.31L29.0109 1.01601C28.5415 0.133929 27.4512 -0.213471 26.5553 0.233562C25.6593 0.680595 25.2854 1.75855 25.713 2.66143L37.4668 26.0648C37.7794 26.6878 38.4188 27.0812 39.1179 27.0806C39.1492 27.0806 39.181 27.0768 39.2126 27.0753C39.2441 27.0739 39.276 27.0806 39.3076 27.0806C40.0067 27.0811 40.646 26.6878 40.9587 26.0648L52.7139 2.66143C53.1698 1.75365 52.8009 0.649471 51.8899 0.195048Z" fill="var(--fill-0, black)"/>
<path d="M110.597 0.185728C109.617 0.269799 108.868 1.09462 108.882 2.07519V19.8617C108.882 19.866 108.88 19.87 108.876 19.8714C108.872 19.8728 108.867 19.8714 108.865 19.8678L94.1235 0.713136C93.5455 -0.0365653 92.4885 -0.222123 91.6882 0.28562C91.1526 0.636566 90.8344 1.23618 90.8449 1.87483V25.1873C90.8304 26.1678 91.579 26.9926 92.5595 27.0765C93.063 27.1076 93.5571 26.93 93.9247 26.5857C94.2923 26.2414 94.5008 25.7611 94.5008 25.2584V7.2188C94.501 7.21469 94.5036 7.21107 94.5075 7.20971C94.5114 7.20835 94.5157 7.20954 94.5184 7.21268L109.26 26.3668C109.847 27.1297 110.928 27.307 111.73 26.7719C112.245 26.4173 112.549 25.8298 112.539 25.206V2.00384C112.539 1.50142 112.331 1.02105 111.963 0.676712C111.595 0.332235 111.101 0.154629 110.597 0.185728Z" fill="var(--fill-0, black)"/>
<path d="M142.186 0.000218552H120.095C119.113 -0.0146421 118.286 0.730076 118.203 1.70534C118.172 2.20586 118.35 2.6969 118.694 3.06227C119.039 3.42764 119.52 3.63489 120.023 3.63499L129.271 3.63499C129.277 3.63514 129.281 3.63948 129.281 3.64489L129.281 25.1911C129.266 26.1696 130.013 26.993 130.992 27.0765C131.494 27.1074 131.987 26.9301 132.354 26.5866C132.721 26.2431 132.928 25.7639 132.929 25.2625V3.64489C132.929 3.63964 132.933 3.6353 132.938 3.63499L142.116 3.63499C143.098 3.64954 143.924 2.9049 144.007 1.92987C144.038 1.42929 143.86 0.938212 143.516 0.57283C143.171 0.207447 142.69 0.000232022 142.186 0.000218552Z" fill="var(--fill-0, black)"/>
<path d="M15.4429 1.01517C15.1144 0.361385 14.4281 -0.0361419 13.6953 0.0028731C12.9639 -0.0344902 12.2794 0.362754 11.9513 1.01517L0.195512 24.4194C-0.260514 25.3272 0.108383 26.4314 1.01947 26.8858C1.93055 27.3402 3.03881 26.9726 3.49484 26.0648L6.38262 20.3158C6.38422 20.3124 6.38764 20.3102 6.39139 20.3102H21.0028C21.0065 20.3102 21.01 20.3124 21.0115 20.3158L23.8993 26.0648C24.3554 26.9725 25.4635 27.34 26.3745 26.8856C27.2856 26.4313 27.6544 25.3271 27.1984 24.4194L15.4429 1.01517ZM7.77712 17.5389L13.6883 5.77057C13.6899 5.76715 13.6933 5.76496 13.6971 5.76496C13.7009 5.76496 13.7043 5.76715 13.7059 5.77057L19.6173 17.5389C19.6189 17.542 19.6187 17.5455 19.6169 17.5484C19.6151 17.5513 19.612 17.553 19.6086 17.5529H7.78589C7.7825 17.553 7.77933 17.5513 7.77753 17.5484C7.77573 17.5455 7.77558 17.542 7.77712 17.5389Z" fill="var(--fill-0, black)"/>
<path d="M85.2994 24.5906C85.2776 24.5289 85.2522 24.4685 85.2232 24.4098L74.398 2.6163C73.842 1.33555 72.6838 0.413521 71.3074 0.155636C69.931 -0.102249 68.5158 0.33767 67.5308 1.32967L64.871 6.37542L58.4877 19.7717C57.4338 21.7958 55.7718 23.136 53.7919 23.6051L63.5659 3.99641C63.5855 3.95652 63.6036 3.91604 63.6203 3.87497C63.7801 3.51714 64.1365 3.28676 64.5296 3.28728C64.5666 3.28791 64.6034 3.29063 64.6401 3.29544L66.2477 0.446389C65.2177 -0.0111777 64.0468 -0.0386038 62.9964 0.370239C61.9461 0.779083 61.1039 1.59012 60.658 2.62213L49.8215 24.3655C49.8048 24.3967 49.7893 24.4284 49.7747 24.4613C49.5339 24.9925 49.5703 25.6076 49.872 26.1068C50.1737 26.6061 50.7023 26.9259 51.2861 26.9624C51.581 26.9868 51.8795 26.9991 52.1744 26.9991C56.0539 26.9991 59.4877 24.839 61.3586 21.22C61.3665 21.2046 61.3744 21.1891 61.3817 21.1731L67.4723 8.38924L67.4741 8.38516L69.3111 4.54013L69.3085 4.53459L69.5768 3.97137C69.5881 3.94768 69.5987 3.9239 69.6087 3.90002C69.763 3.52909 70.1264 3.28727 70.5294 3.28727C70.9324 3.28727 71.2957 3.52909 71.4501 3.90002C71.4632 3.93234 71.4793 3.96438 71.4936 3.99583L81.2332 23.6043C79.2672 23.1336 77.6135 21.7943 76.561 19.7723L70.1511 6.3032L68.3813 10.0647L73.6665 21.1708C73.6741 21.1865 73.682 21.2025 73.6898 21.2183C75.5897 24.8912 78.9264 26.9973 82.8475 26.9973C83.157 26.9973 83.4703 26.9836 83.7787 26.9568C83.9739 26.9401 84.1645 26.8878 84.3408 26.8025C85.1982 26.4342 85.6186 25.4634 85.2991 24.5892" fill="var(--fill-0, black)"/>
</g>
</svg>
