<svg preserveAspectRatio="none" width="100%" height="100%" overflow="visible" style="display: block;" viewBox="0 0 53 19" fill="none" xmlns="http://www.w3.org/2000/svg">
<g id="vtex-logo">
<path id="Shape" d="M38.3077 7.11567H36.4077V13.5999C36.4068 13.7221 36.3076 13.821 36.185 13.8219H34.7217C34.5991 13.821 34.4999 13.7221 34.499 13.5999V7.11567H32.585C32.527 7.11803 32.4706 7.09683 32.4286 7.05693C32.3866 7.01704 32.3627 6.96187 32.3623 6.90404V5.7557C32.3626 5.69787 32.3866 5.6427 32.4286 5.60281C32.4706 5.56291 32.527 5.54171 32.585 5.54407H38.3043C38.4276 5.53816 38.5326 5.63274 38.5392 5.7557V6.90404C38.5326 7.0256 38.4298 7.11962 38.3077 7.11567Z" fill="var(--fill-0, #FF3366)"/>
<path id="path9" d="M44.4009 13.778C43.6518 13.8849 42.8956 13.9336 42.1389 13.9238C40.6965 13.9238 39.4229 13.556 39.4229 11.5282V7.82814C39.4229 5.80032 40.7087 5.44471 42.1494 5.44471C42.9002 5.43446 43.6506 5.48259 44.3939 5.58869C44.5505 5.61124 44.6166 5.66675 44.6166 5.81072V6.85153C44.6158 6.97376 44.5165 7.07262 44.3939 7.07356H42.045C41.523 7.07356 41.3299 7.24703 41.3299 7.83161V8.84466H44.3122C44.4348 8.84559 44.5339 8.94446 44.5349 9.06669V10.1248C44.534 10.2471 44.4348 10.3459 44.3122 10.3469H41.3299V11.5282C41.3299 12.1076 41.5195 12.2862 42.045 12.2862H44.4009C44.5235 12.2872 44.6227 12.386 44.6236 12.5083V13.5491C44.6253 13.6878 44.5575 13.7555 44.4009 13.778Z" fill="var(--fill-0, #FF3366)"/>
<path id="path11" d="M52.833 13.8219H51.0565C50.9326 13.8311 50.8163 13.7616 50.7659 13.6484L49.2243 11.2199L47.8323 13.6033C47.754 13.7369 47.6757 13.8254 47.5522 13.8254H45.9027C45.8595 13.8331 45.8151 13.8213 45.7815 13.7931C45.7479 13.765 45.7285 13.7234 45.7287 13.6797C45.731 13.6524 45.7387 13.6259 45.7513 13.6016L48.1751 9.5789L45.7287 5.7557C45.7161 5.73516 45.7083 5.71202 45.7061 5.68804C45.7144 5.60021 45.7919 5.5353 45.8801 5.54233H47.6792C47.8027 5.54233 47.8915 5.65335 47.9593 5.75396L49.3896 8.00903L50.7815 5.75396C50.832 5.63991 50.9379 5.5599 51.0617 5.54233H52.7164C52.8046 5.5353 52.8821 5.60021 52.8904 5.68804C52.8881 5.71202 52.8804 5.73516 52.8678 5.7557L50.4318 9.60145L52.9669 13.5912C52.9865 13.6251 52.9979 13.6631 53 13.7022C52.9791 13.7785 52.9217 13.8219 52.833 13.8219Z" fill="var(--fill-0, #FF3366)"/>
<path id="path13" d="M29.6862 5.56662C29.6027 5.56477 29.5297 5.62228 29.5122 5.70366L27.8888 11.6917C27.8662 11.8149 27.8332 11.8652 27.7322 11.8652C27.6313 11.8652 27.5983 11.8201 27.5756 11.6917L25.9575 5.70366C25.94 5.62228 25.8669 5.56476 25.7835 5.56662H24.1862C24.1326 5.5653 24.0813 5.58871 24.0473 5.63007C24.0133 5.67142 24.0004 5.72609 24.0122 5.77825C24.0122 5.77825 25.994 12.6423 26.0149 12.7169C26.2794 13.5357 26.9214 13.9312 27.7375 13.9312C28.5204 13.9592 29.2255 13.4621 29.46 12.7169C29.4913 12.6232 31.4297 5.77825 31.4297 5.77825C31.4408 5.72634 31.4276 5.67219 31.3937 5.63127C31.3597 5.59035 31.3089 5.56716 31.2557 5.56835L29.6862 5.56662Z" fill="var(--fill-0, #FF3366)"/>
<path id="path15" d="M20.6332 7.10598e-05H3.97824C3.37557 0.00556419 2.81923 0.323439 2.50982 0.839078C2.20042 1.35472 2.18258 1.99375 2.46273 2.52575L4.12961 5.68978H1.10903C0.723133 5.68278 0.362332 5.8799 0.160608 6.20795C-0.0411165 6.53601 -0.0536374 6.94599 0.127695 7.28567L5.48679 17.3814C5.67909 17.744 6.05674 17.9708 6.46813 17.9708C6.87951 17.9708 7.25716 17.744 7.44947 17.3814L8.90408 14.6459L10.731 18.0909C11.0281 18.6502 11.6109 19 12.2457 19C12.8805 19 13.4633 18.6502 13.7603 18.0909L22.1121 2.43554C22.3887 1.92025 22.3721 1.29775 22.0685 0.79782C21.7649 0.297891 21.2193 -0.00533361 20.6332 7.10598e-05ZM13.1913 6.61436L9.53742 13.4455C9.41189 13.6814 9.16589 13.8289 8.89799 13.8289C8.63008 13.8289 8.38409 13.6814 8.25855 13.4455L4.6516 6.68027C4.54032 6.47208 4.54682 6.22093 4.66872 6.01873C4.79062 5.81653 5.01004 5.69296 5.24667 5.69325H12.6276C12.85 5.68984 13.0576 5.80393 13.1735 5.99321C13.2893 6.1825 13.2961 6.41875 13.1913 6.61436Z" fill="var(--fill-0, #FF3366)"/>
</g>
</svg>
