<svg preserveAspectRatio="none" width="100%" height="100%" overflow="visible" style="display: block;" viewBox="0 0 152.121 26.9998" fill="none" xmlns="http://www.w3.org/2000/svg">
<g id="Grupo 21089">
<path id="Caminho 19889" d="M150.196 0.00349124C149.224 0.0864632 148.482 0.90712 148.496 1.88268V25.1159C148.481 26.0917 149.224 26.9127 150.196 26.9957C150.695 27.0265 151.185 26.8498 151.55 26.5073C151.914 26.1649 152.121 25.6871 152.121 25.187V1.81212C152.121 1.312 151.914 0.834123 151.55 0.491627C151.185 0.149134 150.695 -0.027522 150.196 0.00349124Z" fill="var(--fill-0, black)"/>
<path id="Caminho 19890" d="M51.5478 0.194273C50.6428 -0.258833 49.5418 0.107651 49.0888 1.01279L38.9632 21.2463C38.9616 21.2497 38.9581 21.2518 38.9544 21.2518C38.9506 21.2518 38.9472 21.2497 38.9455 21.2463L28.8199 1.01279C28.3536 0.133336 27.2705 -0.213029 26.3804 0.232673C25.4904 0.678375 25.1189 1.75312 25.5438 2.65331L37.2199 25.987C37.5305 26.6082 38.1656 27.0003 38.8601 26.9997C38.8912 26.9997 38.9229 26.996 38.9542 26.9945C38.9856 26.9931 39.0172 26.9997 39.0486 26.9997C39.7431 27.0002 40.3782 26.6081 40.6888 25.987L52.3664 2.65331C52.8193 1.74823 52.4529 0.647344 51.5478 0.194273Z" fill="var(--fill-0, black)"/>
<path id="Caminho 19891" d="M109.868 0.185132C108.894 0.268953 108.15 1.09132 108.164 2.06897V19.8025L108.158 19.8122L108.147 19.8086L93.5033 0.710969C92.929 -0.0364994 91.879 -0.221505 91.084 0.284726C90.5519 0.634627 90.2358 1.23246 90.2463 1.8692V25.1123C90.2319 26.0898 90.9756 26.9121 91.9495 26.9958C92.4498 27.0268 92.9406 26.8497 93.3058 26.5065C93.671 26.1632 93.8781 25.6843 93.8781 25.1831V7.19725L93.8847 7.1882L93.8955 7.19116L108.54 26.2882C109.123 27.0489 110.197 27.2256 110.994 26.6921C111.506 26.3386 111.807 25.7528 111.797 25.1309V1.99783C111.797 1.49691 111.59 1.01796 111.225 0.674653C110.859 0.331202 110.369 0.154125 109.868 0.185132Z" fill="var(--fill-0, black)"/>
<path id="Caminho 19892" d="M141.248 0.000217925H119.302C118.326 -0.0145985 117.505 0.727902 117.422 1.70026C117.391 2.19929 117.568 2.68886 117.911 3.05315C118.253 3.41743 118.731 3.62407 119.231 3.62416L128.418 3.62416C128.423 3.62431 128.427 3.62864 128.428 3.63404L128.428 25.1161C128.413 26.0917 129.155 26.9126 130.127 26.9959C130.626 27.0266 131.116 26.8499 131.48 26.5074C131.844 26.1649 132.051 25.6872 132.051 25.1872V3.63404L132.06 3.62416L141.177 3.62416C142.153 3.63867 142.974 2.89625 143.057 1.92412C143.087 1.42504 142.911 0.935418 142.568 0.571124C142.226 0.206829 141.748 0.000231355 141.248 0.000217925Z" fill="var(--fill-0, black)"/>
<path id="Caminho 19893" d="M15.341 1.01202C15.0146 0.360182 14.3329 -0.0361612 13.6049 0.00273762C12.8783 -0.0345144 12.1984 0.361546 11.8724 1.01202L0.194222 24.3466C-0.258795 25.2516 0.107667 26.3526 1.01274 26.8056C1.91781 27.2586 3.01876 26.8921 3.47177 25.9871L6.3405 20.2551C6.34208 20.2518 6.34548 20.2496 6.34921 20.2496H20.8642C20.8679 20.2496 20.8713 20.2518 20.8729 20.2551L23.7416 25.9871C24.1946 26.8921 25.2955 27.2585 26.2005 26.8054C27.1055 26.3524 27.4719 25.2515 27.0189 24.3466L15.341 1.01202ZM7.72579 17.4866L13.598 5.75326C13.5995 5.74985 13.6029 5.74767 13.6067 5.74767C13.6104 5.74767 13.6138 5.74985 13.6154 5.75326L19.4879 17.4866C19.4894 17.4896 19.4892 17.4932 19.4875 17.496C19.4857 17.4989 19.4825 17.5006 19.4792 17.5005H7.7345C7.73114 17.5006 7.72798 17.4989 7.7262 17.496C7.72442 17.4932 7.72426 17.4896 7.72579 17.4866Z" fill="var(--fill-0, black)"/>
<path id="Caminho 19894" d="M84.736 24.5176C84.7144 24.456 84.689 24.3958 84.6602 24.3373L73.9065 2.60871C73.3541 1.33177 72.2037 0.412489 70.8363 0.155372C69.469 -0.101745 68.0632 0.336864 67.0847 1.32591L64.4424 6.35664L58.1013 19.7131C57.0543 21.731 55.4033 23.0673 53.4364 23.535L63.1459 3.98471C63.1654 3.94493 63.1834 3.90457 63.2 3.86363C63.3587 3.50686 63.7128 3.27717 64.1033 3.27769C64.14 3.27832 64.1766 3.28103 64.213 3.28582L65.8099 0.445259C64.7868 -0.010945 63.6236 -0.0382894 62.5802 0.369336C61.5367 0.776962 60.7001 1.58558 60.2572 2.61452L49.4922 24.2931C49.4756 24.3242 49.4603 24.3559 49.4458 24.3887C49.2065 24.9182 49.2427 25.5315 49.5424 26.0293C49.8421 26.5271 50.3672 26.8459 50.9472 26.8823C51.2402 26.9066 51.5366 26.9188 51.8296 26.9188C55.6834 26.9188 59.0946 24.7653 60.9531 21.157C60.961 21.1416 60.9689 21.1262 60.9761 21.1102L67.0266 8.36445L67.0283 8.36039L67.082 8.24773L68.8532 4.5268L68.8506 4.52129L69.1171 3.95974C69.1284 3.93612 69.1389 3.91241 69.1488 3.8886C69.3021 3.51878 69.6631 3.27768 70.0634 3.27768C70.4637 3.27768 70.8247 3.51878 70.978 3.8886C70.9911 3.92083 71.0071 3.95277 71.0213 3.98413L80.6966 23.5342C78.7436 23.0649 77.1008 21.7296 76.0553 19.7136L69.6877 6.28463L67.9296 10.0349L73.1798 21.1079C73.1874 21.1236 73.1952 21.1396 73.203 21.1553C75.0904 24.8172 78.405 26.9171 82.3002 26.9171C82.6077 26.9171 82.919 26.9035 83.2253 26.8767C83.4193 26.8601 83.6085 26.8079 83.7836 26.7229C84.6354 26.3556 85.0534 25.3892 84.736 24.5176Z" fill="var(--fill-0, black)"/>
</g>
</svg>
