<svg preserveAspectRatio="none" width="100%" height="100%" overflow="visible" style="display: block;" viewBox="0 0 32.3998 12.0774" fill="none" xmlns="http://www.w3.org/2000/svg">
<g id="Grupo 9702">
<g id="Grupo 9700">
<path id="Caminho 19368" d="M5.05038 2.6678C5.41434 2.54952 5.80344 2.48597 6.20859 2.48597C7.97528 2.48597 9.45029 3.70656 9.78815 5.32897L12.2925 4.83206C11.7179 2.07501 9.21277 0 6.20859 0C5.5202 0 4.85892 0.109128 4.24023 0.310194L5.05038 2.6678Z" fill="var(--fill-0, #303030)"/>
<path id="Caminho 19369" d="M2.09547 10.5625L3.78903 8.70011C3.03304 8.04866 2.55606 7.09789 2.55606 6.03863C2.55606 4.97936 3.03239 4.02985 3.78789 3.37919L2.09401 1.5166C0.810139 2.62287 0 4.23896 0 6.03863C0 7.83829 0.810464 9.45612 2.09547 10.5625Z" fill="var(--fill-0, #303030)"/>
<path id="Caminho 19370" d="M9.78784 6.75121C9.44867 8.37281 7.9751 9.59106 6.20892 9.59106C5.80362 9.59106 5.41336 9.52751 5.04956 9.40859L4.23828 11.7673C4.85712 11.9682 5.51971 12.077 6.20892 12.077C9.21017 12.077 11.7148 10.0055 12.2918 7.2508L9.78784 6.75121Z" fill="var(--fill-0, #303030)"/>
</g>
<path id="Caminho 19371" d="M14.4829 8.77859C14.4008 8.64927 14.2894 8.44253 14.2222 8.29035C13.8256 7.39477 13.8066 6.46798 14.1415 5.57823C14.5098 4.60256 15.2132 3.85554 16.1221 3.47516C17.2648 2.99686 18.5285 3.09116 19.6237 3.72322C20.3193 4.11148 20.8125 4.7109 21.187 5.55852C21.2347 5.66702 21.2767 5.78294 21.3176 5.88134L14.4829 8.77859ZM16.7651 4.91291C15.9536 5.25212 15.5353 5.99251 15.6213 6.86064L19.0587 5.42165C18.4675 4.74606 17.6984 4.52213 16.7651 4.91291ZM19.4875 8.04387C19.4867 8.04449 19.4862 8.04513 19.4855 8.04575L19.4144 7.99909C19.2093 8.32284 18.8892 8.58509 18.4854 8.7554C17.717 9.08042 17.005 8.99684 16.4937 8.56064L16.4467 8.63019C16.4467 8.63019 16.446 8.62877 16.4452 8.62877L15.5731 9.89778C15.7896 10.0441 16.022 10.1681 16.2662 10.2671C17.2296 10.6563 18.2151 10.6383 19.1861 10.2275C19.8884 9.93152 20.4395 9.48003 20.8161 8.90789L19.4875 8.04387Z" fill="var(--fill-0, #303030)"/>
<path id="Caminho 19372" d="M23.7068 1.60645V8.66159L24.8344 9.10614L24.1936 10.5604L22.9489 10.0563C22.6694 9.93863 22.4792 9.75855 22.3353 9.55527C22.1976 9.34805 22.0947 9.06372 22.0947 8.68083V1.60645H23.7068Z" fill="var(--fill-0, #303030)"/>
<g id="Grupo 9701">
<path id="Caminho 19373" d="M26.6283 6.86378C26.629 6.26293 26.9016 5.72422 27.3333 5.35806L26.1763 4.10324C25.3916 4.77788 24.8975 5.76364 24.8965 6.86203C24.8951 7.96074 25.3887 8.9476 26.1726 9.62399L27.3282 8.36789C26.8988 8.00016 26.6278 7.46319 26.6283 6.86378Z" fill="var(--fill-0, #303030)"/>
<path id="Caminho 19374" d="M28.6838 8.86614C28.4561 8.86552 28.2367 8.82892 28.0321 8.76269L27.4795 10.3607C27.8572 10.484 28.2616 10.5512 28.682 10.5518C30.5139 10.5535 32.0436 9.28926 32.3979 7.6085L30.6997 7.27117C30.5066 8.18254 29.6774 8.86694 28.6838 8.86614Z" fill="var(--fill-0, #303030)"/>
<path id="Caminho 19375" d="M28.6887 3.17958C28.2688 3.1791 27.8644 3.24549 27.4873 3.36772L28.035 4.9671C28.2402 4.90117 28.4596 4.86475 28.6871 4.86475C29.6829 4.8657 30.5128 5.55436 30.7013 6.46792L32.3998 6.13281C32.0504 4.44983 30.5221 3.18084 28.6887 3.17958Z" fill="var(--fill-0, #303030)"/>
</g>
</g>
</svg>
