<svg preserveAspectRatio="none" width="100%" height="100%" overflow="visible" style="display: block;" viewBox="0 0 38.4989 29.8987" fill="none" xmlns="http://www.w3.org/2000/svg">
<g id="Group">
<g id="Group_2">
<path id="Vector" d="M33.6247 10.0054H31.3987V8.85723C31.3987 7.94339 30.6488 7.19357 29.735 7.19357C28.8212 7.19357 28.0713 7.94339 28.0713 8.85723V10.0054H25.8453V8.85723C25.8453 6.7015 27.6027 4.96755 29.735 4.96755C31.8907 4.96755 33.6247 6.72494 33.6247 8.85723V10.0054Z" fill="var(--fill-0, #FFA400)"/>
<path id="Vector_2" d="M34.5383 10.0059H24.9313C24.5095 10.0059 24.1815 10.3339 24.1815 10.7557V17.8555C24.1815 18.2773 24.5095 18.6053 24.9313 18.6053H34.5383C34.9601 18.6053 35.2881 18.2773 35.2881 17.8555V10.7557C35.2647 10.3339 34.9367 10.0059 34.5383 10.0059ZM30.2034 14.6688V15.6295C30.2034 15.8872 29.9926 16.1216 29.7114 16.1216C29.4536 16.1216 29.2193 15.9107 29.2193 15.6295V14.6688C28.9147 14.5048 28.7272 14.1767 28.7272 13.8018C28.7272 13.2629 29.1724 12.8177 29.7114 12.8177C30.2503 12.8177 30.6955 13.2629 30.6955 13.8018C30.7189 14.1767 30.5081 14.5048 30.2034 14.6688Z" fill="var(--fill-0, #003A70)"/>
<path id="Vector_3" d="M23.9473 8.95096H21.6276C21.2527 8.95096 20.9481 8.64635 20.9481 8.27144C20.9481 7.89653 21.2527 7.59191 21.6276 7.59191H23.9473C24.3222 7.59191 24.6269 7.89653 24.6269 8.27144C24.6269 8.64635 24.3222 8.95096 23.9473 8.95096Z" fill="var(--fill-0, #FFA400)"/>
<path id="Vector_4" d="M25.5878 5.29586C25.4472 5.29586 25.2831 5.24899 25.166 5.13183L23.3383 3.6322C23.0571 3.39788 23.0103 2.9761 23.2446 2.67149C23.4789 2.39031 23.9007 2.34344 24.2053 2.57776L26.033 4.0774C26.3141 4.31172 26.361 4.73349 26.1267 5.03811C25.9627 5.20213 25.7752 5.29586 25.5878 5.29586Z" fill="var(--fill-0, #FFA400)"/>
<path id="Vector_5" d="M29.735 3.70223C29.3601 3.70223 29.0555 3.39762 29.0555 3.02271V0.679523C29.0555 0.304614 29.3601 5.61602e-10 29.735 5.61602e-10C30.1099 5.61602e-10 30.4145 0.304614 30.4145 0.679523V3.02271C30.4145 3.39762 30.1099 3.70223 29.735 3.70223Z" fill="var(--fill-0, #FFA400)"/>
<path id="Vector_6" d="M33.8587 5.29586C33.6713 5.29586 33.4604 5.20213 33.3432 5.03811C33.1089 4.75692 33.1558 4.31172 33.4369 4.0774L35.2646 2.57776C35.5458 2.34344 35.991 2.39031 36.2253 2.67149C36.4596 2.95267 36.4128 3.39788 36.1316 3.6322L34.3039 5.13183C34.1633 5.24899 34.0227 5.29586 33.8587 5.29586Z" fill="var(--fill-0, #FFA400)"/>
<path id="Vector_7" d="M37.8194 8.95084H35.4762C35.1013 8.95084 34.7967 8.64623 34.7967 8.27132C34.7967 7.89641 35.1013 7.5918 35.4762 7.5918H37.8194C38.1943 7.5918 38.4989 7.89641 38.4989 8.27132C38.4989 8.64623 38.1943 8.95084 37.8194 8.95084Z" fill="var(--fill-0, #FFA400)"/>
</g>
<path id="Vector_8" d="M0 18.5108V10.9423H1.82768V16.9175H4.75666V18.5108H0ZM10.8021 15.9099V16.1208V16.3317H6.93582C6.95925 16.4723 7.00612 16.6129 7.07641 16.73C7.14671 16.8472 7.24044 16.9643 7.3576 17.0346C7.47476 17.1284 7.61535 17.1986 7.75594 17.2455C7.89653 17.2924 8.06055 17.3158 8.20114 17.3158C8.48232 17.3158 8.71664 17.2689 8.9041 17.1518C9.09155 17.0581 9.25557 16.9175 9.37273 16.7534L10.5912 17.5267C10.3334 17.9016 10.0054 18.1594 9.60705 18.3702C9.20871 18.5577 8.71664 18.6749 8.17771 18.6749C7.77937 18.6749 7.40446 18.6046 7.05298 18.4874C6.7015 18.3702 6.39689 18.1828 6.11571 17.9485C5.85796 17.7141 5.64707 17.4095 5.48305 17.0581C5.31903 16.7066 5.24873 16.3082 5.24873 15.863C5.24873 15.4178 5.31903 15.0429 5.48305 14.6914C5.62364 14.34 5.83453 14.0354 6.09228 13.801C6.35003 13.5667 6.65464 13.3558 7.00612 13.2387C7.3576 13.0981 7.73251 13.0278 8.13085 13.0278C8.52919 13.0278 8.88067 13.0981 9.20871 13.2152C9.53676 13.3558 9.81794 13.5433 10.0523 13.7776C10.2866 14.0354 10.474 14.34 10.5912 14.6914C10.7318 15.0664 10.8021 15.4647 10.8021 15.9099ZM9.18528 15.2538C9.18528 14.9726 9.09155 14.7383 8.92753 14.5274C8.76351 14.3165 8.48232 14.2228 8.13085 14.2228C7.96682 14.2228 7.8028 14.2462 7.66221 14.2931C7.52162 14.34 7.40446 14.4103 7.2873 14.504C7.17014 14.5977 7.09985 14.7149 7.02955 14.832C6.95926 14.9492 6.93582 15.0898 6.91239 15.2304H9.18528V15.2538ZM13.6139 14.504V16.5426C13.6139 16.8003 13.6608 16.9878 13.7545 17.1049C13.8482 17.2221 14.0122 17.2924 14.27 17.2924C14.3637 17.2924 14.4574 17.2924 14.5512 17.2689C14.6449 17.2455 14.7386 17.2221 14.7855 17.1986L14.8089 18.4874C14.6918 18.5343 14.5277 18.5577 14.3403 18.6046C14.1528 18.628 13.9654 18.6514 13.7779 18.6514C13.4264 18.6514 13.1218 18.6046 12.8875 18.5108C12.6532 18.4171 12.4423 18.2999 12.3017 18.1359C12.1611 17.9719 12.044 17.761 11.9971 17.5267C11.9502 17.2924 11.9034 17.0346 11.9034 16.7534V14.504H11.0364V13.1918H11.8799V11.7859H13.6139V13.1918H14.8558V14.504H13.6139ZM16.4726 10.8018C15.9571 10.8018 15.5353 11.1767 15.5353 11.6687C15.5353 12.1842 15.8868 12.5123 16.4023 12.5123C16.4491 12.5123 16.496 12.5123 16.5194 12.4889C16.4257 12.8638 16.0742 13.1449 15.7228 13.1918H15.6525V14.0119H15.7462C16.168 13.9651 16.5663 13.7776 16.8709 13.4964C17.2693 13.1215 17.4801 12.5591 17.4801 11.9031C17.4801 11.2704 17.0584 10.8018 16.4726 10.8018ZM20.5263 14.7617C20.3857 14.6211 20.2217 14.504 20.0342 14.4103C19.8468 14.3165 19.6359 14.2697 19.425 14.2697C19.261 14.2697 19.1204 14.2931 18.9798 14.3634C18.8392 14.4337 18.7689 14.5274 18.7689 14.6914C18.7689 14.832 18.8392 14.9492 19.0032 15.0195C19.1672 15.0898 19.4016 15.1601 19.753 15.2304C19.9639 15.2772 20.1514 15.3241 20.3623 15.4178C20.5732 15.5116 20.7372 15.6053 20.9012 15.7224C21.0652 15.8396 21.2058 16.0036 21.2995 16.1911C21.3933 16.3785 21.4401 16.5894 21.4401 16.8472C21.4401 17.1752 21.3698 17.4564 21.2292 17.6907C21.0887 17.925 20.9246 18.1125 20.6903 18.2531C20.4794 18.3937 20.2217 18.4874 19.9639 18.5577C19.6827 18.628 19.425 18.6514 19.1438 18.6514C18.6986 18.6514 18.2768 18.5811 17.8785 18.4405C17.4567 18.2999 17.1052 18.0891 16.8475 17.8313L17.8316 16.8003C17.9956 16.9643 18.1831 17.1049 18.4174 17.2221C18.6517 17.3392 18.8861 17.3861 19.1438 17.3861C19.2844 17.3861 19.425 17.3627 19.5656 17.2924C19.7062 17.2221 19.7765 17.1049 19.7765 16.9409C19.7765 16.7769 19.6827 16.6597 19.5187 16.566C19.3547 16.4957 19.0735 16.402 18.722 16.3317C18.5346 16.2848 18.3471 16.2379 18.1597 16.1676C17.9722 16.0974 17.8082 16.0036 17.6676 15.8865C17.527 15.7693 17.4099 15.6053 17.3161 15.4413C17.2224 15.2538 17.1755 15.0429 17.1755 14.8086C17.1755 14.4806 17.2458 14.2228 17.3864 13.9885C17.527 13.7542 17.691 13.5901 17.9019 13.4496C18.1128 13.309 18.3471 13.1918 18.6049 13.1449C18.8626 13.0746 19.1204 13.0512 19.3781 13.0512C19.7765 13.0512 20.1748 13.1215 20.5497 13.2387C20.9246 13.3558 21.2527 13.5433 21.5104 13.801L20.5263 14.7617ZM0 27.2743V19.7059H5.08471V21.2524H1.75739V22.6817H4.89725V24.1345H1.75739V25.7044H5.27216V27.2743H0ZM9.88823 27.2743V24.3688C9.88823 24.2282 9.8648 24.0876 9.84137 23.947C9.81794 23.8064 9.77108 23.6893 9.72421 23.5955C9.67735 23.5018 9.58362 23.4081 9.48989 23.3612C9.39617 23.2909 9.25557 23.2675 9.09155 23.2675C8.92753 23.2675 8.78694 23.2909 8.66978 23.3612C8.55262 23.4315 8.45889 23.5018 8.36517 23.619C8.29487 23.7361 8.22457 23.8533 8.17771 23.9939C8.13085 24.1345 8.10741 24.2751 8.10741 24.4157V27.2978H6.35003V21.9787H8.03712V22.7051H8.06055C8.13085 22.588 8.20114 22.4708 8.3183 22.3771C8.41203 22.2599 8.55262 22.1662 8.66978 22.0959C8.81037 22.0256 8.95096 21.9553 9.11498 21.9084C9.27901 21.8616 9.44303 21.8382 9.63048 21.8382C9.98196 21.8382 10.2866 21.9084 10.5443 22.0256C10.8021 22.1428 10.9895 22.3302 11.1536 22.5177C11.3176 22.7286 11.4113 22.9629 11.4816 23.2206C11.5519 23.4784 11.5753 23.7361 11.5753 24.0173V27.2978H9.88823V27.2743ZM16.168 23.6658C16.0742 23.5487 15.9336 23.4315 15.7696 23.3612C15.6056 23.2909 15.4181 23.2441 15.2541 23.2441C15.0667 23.2441 14.9026 23.2909 14.7621 23.3612C14.6215 23.4315 14.4809 23.5252 14.3871 23.6658C14.2934 23.8064 14.1997 23.9236 14.1294 24.0876C14.0591 24.2516 14.0357 24.4157 14.0357 24.6031C14.0357 24.7906 14.0591 24.9546 14.1294 25.1186C14.1763 25.2826 14.27 25.4232 14.3871 25.5404C14.5043 25.6575 14.6215 25.7747 14.7855 25.845C14.9495 25.9153 15.1135 25.9622 15.301 25.9622C15.4884 25.9622 15.6525 25.9387 15.8399 25.8684C16.0039 25.7981 16.1445 25.7044 16.2617 25.5638L17.2224 26.7588C17.0115 26.9697 16.7069 27.1337 16.3789 27.2509C16.0274 27.3681 15.6525 27.4384 15.2776 27.4384C14.8558 27.4384 14.4574 27.3681 14.106 27.2509C13.7311 27.1337 13.4264 26.9463 13.1453 26.6885C12.8875 26.4542 12.6766 26.1496 12.5126 25.7981C12.3486 25.4467 12.2783 25.0483 12.2783 24.6031C12.2783 24.1579 12.3486 23.783 12.5126 23.4315C12.6766 23.08 12.8875 22.7754 13.1453 22.5411C13.403 22.3068 13.7311 22.0959 14.106 21.9787C14.4809 21.8382 14.8558 21.7913 15.2776 21.7913C15.465 21.7913 15.6525 21.8147 15.8399 21.8382C16.0274 21.885 16.2148 21.9319 16.3789 21.9787C16.5429 22.049 16.7069 22.1193 16.8709 22.2131C17.0115 22.3068 17.1521 22.4005 17.2458 22.5177L16.168 23.6658ZM21.2761 23.4081C21.2058 23.3847 21.1121 23.3612 21.0418 23.3612H20.8309C20.5966 23.3612 20.4091 23.4081 20.2451 23.4784C20.0811 23.5721 19.9639 23.6658 19.8702 23.783C19.7765 23.9002 19.7062 24.0407 19.6593 24.1813C19.6124 24.3219 19.589 24.4391 19.589 24.5562V27.2743H17.8316V21.9553H19.5187V22.7286H19.5421C19.6827 22.4474 19.8702 22.2365 20.1279 22.0725C20.3857 21.9084 20.6669 21.8147 20.9949 21.8147H21.2058C21.2761 21.8147 21.323 21.8382 21.3698 21.8382L21.2761 23.4081ZM25.4001 28.071C25.283 28.3522 25.1658 28.5865 25.0486 28.8208C24.908 29.0317 24.7674 29.2192 24.58 29.3832C24.3925 29.5472 24.1817 29.641 23.9473 29.7347C23.713 29.805 23.4084 29.8518 23.0804 29.8518C22.9163 29.8518 22.7523 29.8518 22.5649 29.8284C22.4008 29.805 22.2368 29.7815 22.1197 29.7347L22.3071 28.2585C22.4008 28.2819 22.4946 28.3053 22.5883 28.3288C22.682 28.3522 22.7757 28.3522 22.8695 28.3522C23.1507 28.3522 23.3381 28.2819 23.4553 28.1647C23.5724 28.0476 23.6896 27.8601 23.7599 27.6258L23.9239 27.1806L21.6979 21.9553H23.6427L24.8377 25.3764H24.8612L25.9156 21.9553H27.7667L25.4001 28.071ZM34.1636 24.6031C34.1636 24.978 34.1168 25.3295 33.9996 25.681C33.8824 26.0324 33.7184 26.3136 33.5075 26.5948C33.2966 26.8526 33.0155 27.0635 32.7108 27.2275C32.4062 27.3915 32.0313 27.4618 31.633 27.4618C31.3049 27.4618 31.0003 27.3915 30.6957 27.2743C30.4145 27.1337 30.1802 26.9697 30.0162 26.7354H29.9927V29.8987H28.2354V22.0256H29.899V22.6817H29.9225C30.0865 22.4708 30.3208 22.2834 30.602 22.1193C30.8832 21.9553 31.2346 21.885 31.633 21.885C32.0079 21.885 32.3594 21.9553 32.6874 22.1193C32.992 22.2599 33.2732 22.4708 33.4841 22.7286C33.695 22.9863 33.859 23.2909 33.9762 23.619C34.0933 23.8767 34.1636 24.2282 34.1636 24.6031ZM32.4531 24.6031C32.4531 24.4391 32.4297 24.2751 32.3828 24.111C32.3359 23.947 32.2422 23.8064 32.1485 23.6893C32.0548 23.5721 31.9142 23.4549 31.7501 23.3847C31.5861 23.3144 31.4221 23.2675 31.2112 23.2675C31.0003 23.2675 30.8363 23.3144 30.6723 23.3847C30.5082 23.4549 30.3911 23.5721 30.2739 23.6893C30.1568 23.8064 30.0865 23.9704 30.0162 24.1345C29.9459 24.2985 29.9225 24.4625 29.9225 24.6265C29.9225 24.7906 29.9459 24.9546 30.0162 25.1186C30.0865 25.2826 30.1568 25.4232 30.2739 25.5638C30.3911 25.681 30.5082 25.7981 30.6723 25.8684C30.8363 25.9387 31.0003 25.9856 31.2112 25.9856C31.4221 25.9856 31.6095 25.9387 31.7501 25.8684C31.9142 25.7981 32.0313 25.681 32.1485 25.5638C32.2422 25.4467 32.3359 25.2826 32.3828 25.1186C32.4297 24.9312 32.4531 24.7671 32.4531 24.6031ZM36.952 23.2675V25.3061C36.952 25.5638 36.9989 25.7513 37.0926 25.8684C37.1863 25.9856 37.3503 26.0559 37.6081 26.0559C37.7018 26.0559 37.7956 26.0559 37.8893 26.0325C37.983 26.009 38.0767 25.9856 38.1236 25.9622L38.147 27.2509C38.0299 27.2978 37.8658 27.3212 37.6784 27.3681C37.4909 27.3915 37.3035 27.4149 37.116 27.4149C36.7645 27.4149 36.4599 27.3681 36.2256 27.2743C35.9913 27.1806 35.7804 27.0635 35.6398 26.8994C35.4992 26.7354 35.3821 26.5245 35.3352 26.2902C35.2883 26.0559 35.2415 25.7981 35.2415 25.517V23.2675H34.3979V21.9553H35.2415V20.5494H36.952V21.9553H38.1939V23.2675H36.952Z" fill="var(--fill-0, #003A70)"/>
</g>
</svg>
