<svg width="26" height="26" viewBox="109.3997 0 26 26" fill="none" xmlns="http://www.w3.org/2000/svg">
<g id="youtube-logo">
<g id="Rectangle 6807">
</g>
<path id="Union 632" d="M113.125 20.365C112.765 20.2223 112.445 19.9971 112.188 19.7078C111.932 19.4184 111.747 19.0729 111.649 18.699C111.216 16.7539 111.022 14.7631 111.073 12.771C111.022 10.7813 111.216 8.79288 111.648 6.85C111.744 6.47669 111.927 6.13122 112.181 5.84135C112.435 5.55149 112.754 5.32531 113.112 5.181C116.499 3.887 121.846 3.85 122.445 3.85H122.483C123.111 3.85 128.458 3.887 131.833 5.176C132.192 5.31895 132.512 5.54415 132.768 5.8335C133.025 6.12285 133.209 6.46827 133.308 6.842C133.741 8.78711 133.934 10.7779 133.884 12.77C133.934 14.7611 133.741 16.7508 133.309 18.695C133.212 19.0675 133.029 19.4122 132.774 19.7013C132.52 19.9904 132.202 20.216 131.845 20.36C128.458 21.654 123.111 21.691 122.512 21.691C121.847 21.692 116.499 21.65 113.125 20.365ZM113.706 6.699C113.588 6.74791 113.484 6.8234 113.4 6.91953C113.317 7.01567 113.257 7.12982 113.226 7.253C112.828 9.06425 112.652 10.9172 112.702 12.771C112.652 14.6258 112.828 16.4798 113.227 18.292C113.259 18.4169 113.32 18.5325 113.406 18.6294C113.491 18.7263 113.598 18.8019 113.718 18.85C116.861 20.05 122.218 20.065 122.445 20.065C122.738 20.065 128.096 20.051 131.251 18.846C131.368 18.7971 131.473 18.7216 131.556 18.6255C131.639 18.5293 131.699 18.4152 131.731 18.292C132.129 16.4804 132.305 14.6271 132.255 12.773C132.305 10.9175 132.128 9.06282 131.73 7.25C131.697 7.12564 131.635 7.01071 131.55 6.91435C131.465 6.81799 131.358 6.74288 131.239 6.695C128.096 5.495 122.739 5.48 122.512 5.48H122.445C122.219 5.479 116.861 5.493 113.706 6.699ZM120.465 16.75C120.335 16.6804 120.226 16.5768 120.15 16.4504C120.075 16.324 120.035 16.1794 120.035 16.032V9.512C120.034 9.36453 120.074 9.21978 120.15 9.09321C120.226 8.96665 120.334 8.86302 120.464 8.7934C120.594 8.72378 120.741 8.69078 120.888 8.69793C121.035 8.70508 121.178 8.75211 121.301 8.834L126.189 12.093C126.3 12.1673 126.392 12.268 126.455 12.3862C126.518 12.5044 126.551 12.6364 126.551 12.7705C126.551 12.9046 126.518 13.0366 126.455 13.1548C126.392 13.273 126.3 13.3737 126.189 13.448L121.301 16.707C121.178 16.7886 121.035 16.8355 120.888 16.8425C120.741 16.8496 120.595 16.8165 120.465 16.747V16.75ZM121.665 14.51L124.265 12.773L121.665 11.037V14.51Z" fill="var(--fill-0, #005CFF)"/>
</g>
</svg>
