<svg width="18.196" height="20.999" viewBox="175.399658203125 2.500499725341797 18.196365356445312 20.999000549316406" fill="none" xmlns="http://www.w3.org/2000/svg">
<path id="logo-tiktok-svgrepo-com" d="M191.331 6.9905C191.189 6.91711 191.052 6.83667 190.918 6.7495C190.529 6.49312 190.173 6.19096 189.856 5.8495C189.234 5.15434 188.818 4.29921 188.656 3.3805C188.597 3.09105 188.581 2.79461 188.608 2.5005H185.01V16.4455C185.01 16.6325 185.01 16.8175 185.002 17.0005C185.002 17.0235 185.002 17.0445 185.002 17.0685C185.003 17.0788 185.003 17.0892 185.002 17.0995V17.1075C184.964 17.608 184.804 18.0914 184.535 18.5154C184.266 18.9393 183.897 19.2906 183.461 19.5385C183.006 19.7973 182.492 19.933 181.969 19.9325C181.157 19.9325 180.378 19.6098 179.804 19.0355C179.229 18.4612 178.907 17.6822 178.907 16.87C178.907 16.0578 179.229 15.2788 179.804 14.7045C180.378 14.1302 181.157 13.8075 181.969 13.8075C182.287 13.8071 182.603 13.857 182.906 13.9555V10.2835C181.988 10.1649 181.055 10.2379 180.167 10.4978C179.278 10.7577 178.453 11.1989 177.744 11.7935C177.123 12.3323 176.6 12.9753 176.2 13.6935C175.694 14.6243 175.42 15.6633 175.4 16.7225C175.392 17.5367 175.523 18.3464 175.787 19.1165V19.1255C176.025 19.7651 176.355 20.3667 176.766 20.9115C177.211 21.4769 177.738 21.9735 178.328 22.3855V22.3765L178.337 22.3855C179.431 23.1064 180.71 23.4935 182.02 23.4995C182.963 23.4996 183.896 23.2948 184.752 22.8995C185.598 22.5006 186.353 21.933 186.971 21.2315C187.485 20.6353 187.894 19.956 188.18 19.2225C188.444 18.4832 188.591 17.7072 188.615 16.9225V9.5225C188.659 9.5485 189.241 9.9345 189.241 9.9345C189.912 10.3297 190.636 10.629 191.39 10.8235C192.115 10.9896 192.853 11.09 193.596 11.1235V7.5435C192.806 7.55333 192.027 7.36308 191.331 6.9905Z" fill="var(--fill-0, #005CFF)"/>
</svg>
