<svg width="26" height="26" viewBox="0 0 26 26" fill="none" xmlns="http://www.w3.org/2000/svg">
<rect width="26" height="26" fill="#626262"/>
<g id="footer">
<g id="Group 17">
<g id="Grupo 10399">
<g id="Frame" clip-path="url(#clip0_13_673)">
<g id="Frame 41">
<g id="youtube-logo">
<path id="Union 632" d="M3.72489 20.365C3.36561 20.2222 3.04488 19.9971 2.78851 19.7077C2.53214 19.4184 2.34731 19.0728 2.24889 18.699C1.8158 16.7539 1.62236 14.7631 1.67289 12.771C1.62266 10.7813 1.81575 8.79285 2.24789 6.84998C2.34438 6.47666 2.5271 6.13119 2.78136 5.84133C3.03562 5.55146 3.35434 5.32529 3.71189 5.18098C7.09889 3.88698 12.4459 3.84998 13.0449 3.84998H13.0829C13.7109 3.84998 19.0579 3.88698 22.4329 5.17598C22.7919 5.31892 23.1124 5.54412 23.3686 5.83347C23.6248 6.12282 23.8095 6.46825 23.9079 6.84198C24.3409 8.78709 24.5344 10.7779 24.4839 12.77C24.5344 14.761 24.3413 16.7508 23.9089 18.695C23.8118 19.0675 23.6288 19.4122 23.3746 19.7013C23.1203 19.9904 22.802 20.216 22.4449 20.36C19.0579 21.654 13.7109 21.691 13.1119 21.691C12.4469 21.692 7.09889 21.65 3.72489 20.365ZM4.30589 6.69898C4.18848 6.74789 4.08401 6.82338 4.00072 6.91951C3.91743 7.01564 3.85758 7.12979 3.82589 7.25298C3.42792 9.06423 3.25196 10.9172 3.30189 12.771C3.25193 14.6258 3.42823 16.4798 3.82689 18.292C3.85937 18.4169 3.92072 18.5325 4.00599 18.6294C4.09127 18.7263 4.1981 18.8019 4.31789 18.85C7.46089 20.05 12.8179 20.065 13.0449 20.065C13.3379 20.065 18.6959 20.051 21.8509 18.846C21.9683 18.7971 22.0728 18.7216 22.1561 18.6254C22.2394 18.5293 22.2992 18.4152 22.3309 18.292C22.7289 16.4804 22.9049 14.6271 22.8549 12.773C22.905 10.9175 22.7287 9.0628 22.3299 7.24998C22.2969 7.12562 22.2354 7.01068 22.1501 6.91433C22.0649 6.81797 21.9583 6.74286 21.8389 6.69498C18.6959 5.49498 13.3389 5.47998 13.1119 5.47998H13.0449C12.8189 5.47898 7.46089 5.49298 4.30589 6.69898ZM11.0649 16.75C10.935 16.6804 10.8264 16.5768 10.7507 16.4504C10.675 16.324 10.635 16.1793 10.6349 16.032V9.51198C10.6347 9.36451 10.6746 9.21976 10.7503 9.09319C10.826 8.96662 10.9346 8.86299 11.0646 8.79337C11.1946 8.72375 11.3411 8.69075 11.4884 8.69791C11.6357 8.70506 11.7782 8.75209 11.9009 8.83398L16.7889 12.093C16.9005 12.1673 16.992 12.268 17.0553 12.3862C17.1186 12.5044 17.1517 12.6364 17.1517 12.7705C17.1517 12.9045 17.1186 13.0365 17.0553 13.1547C16.992 13.2729 16.9005 13.3737 16.7889 13.448L11.9009 16.707C11.7782 16.7886 11.6356 16.8354 11.4884 16.8425C11.3412 16.8495 11.1948 16.8165 11.0649 16.747V16.75ZM12.2649 14.51L14.8649 12.773L12.2649 11.037V14.51Z" fill="#005CFF"/>
</g>
</g>
</g>
</g>
</g>
</g>
<defs>
<clipPath id="clip0_13_673">
<rect width="194" height="26" fill="white" transform="translate(-109.389)"/>
</clipPath>
</defs>
</svg>
