<svg width="19.014" height="19.012" viewBox="0 3.4938 19.0137 19.0125" fill="none" xmlns="http://www.w3.org/2000/svg">
<g id="instagram">
<path id="Union 633" d="M5.60162 22.5033C4.12768 22.5487 2.69557 22.0095 1.61762 21.0033C1.08304 20.4679 0.664402 19.8282 0.387761 19.1241C0.111119 18.4199 -0.017601 17.6663 0.0096154 16.9103V9.05827C-0.0353073 8.31724 0.0775326 7.57511 0.340679 6.88092C0.603826 6.18673 1.01129 5.55629 1.53614 5.03124C2.061 4.5062 2.6913 4.09851 3.38539 3.83511C4.07948 3.57172 4.82157 3.45861 5.56262 3.50327H13.4556C14.1975 3.47765 14.9368 3.60377 15.6282 3.87391C16.3196 4.14404 16.9486 4.5525 17.4766 5.07427C17.9852 5.60236 18.3828 6.22695 18.6461 6.9112C18.9094 7.59544 19.033 8.32549 19.0096 9.05827V16.9493C19.0383 17.6964 18.9138 18.4414 18.6438 19.1386C18.3738 19.8358 17.964 20.4704 17.4396 21.0033C16.3483 22.0125 14.9033 22.5514 13.4176 22.5033H5.60162ZM2.80962 6.26227C2.45777 6.63542 2.18484 7.07574 2.00717 7.55685C1.8295 8.03797 1.75074 8.54999 1.77562 9.06227V16.9153C1.7486 17.432 1.82626 17.9488 2.00394 18.4348C2.18163 18.9208 2.45567 19.3658 2.80962 19.7433C3.57714 20.4285 4.58168 20.7872 5.60962 20.7433H13.4256C14.4535 20.7871 15.458 20.4284 16.2256 19.7433C16.5941 19.3796 16.8831 18.9434 17.0743 18.4623C17.2655 17.9812 17.3548 17.4657 17.3366 16.9483V9.05827C17.3559 8.03928 16.9808 7.05224 16.2896 6.30327C15.9166 5.95128 15.4763 5.67825 14.9951 5.50058C14.514 5.3229 14.0019 5.24422 13.4896 5.26927H5.60162C4.57634 5.21861 3.57265 5.57558 2.80962 6.26227ZM4.60962 12.9623C4.60962 11.9931 4.897 11.0458 5.43541 10.24C5.97383 9.43417 6.73911 8.80612 7.63447 8.43526C8.52982 8.06439 9.51505 7.96735 10.4656 8.15642C11.4161 8.34548 12.2892 8.81216 12.9744 9.49744C13.6597 10.1827 14.1264 11.0558 14.3155 12.0063C14.5045 12.9568 14.4075 13.9421 14.0366 14.8374C13.6658 15.7328 13.0377 16.498 12.2319 17.0365C11.4261 17.5749 10.4787 17.8623 9.50961 17.8623C8.21147 17.8594 6.96727 17.3426 6.04906 16.4249C5.13084 15.5073 4.61331 14.2634 4.60962 12.9653V12.9623ZM6.37262 12.9623C6.37222 13.5838 6.5562 14.1914 6.90128 14.7083C7.24635 15.2252 7.737 15.6281 8.31115 15.866C8.88529 16.1039 9.5171 16.1662 10.1266 16.0449C10.7362 15.9236 11.296 15.6242 11.7353 15.1846C12.1747 14.745 12.4737 14.1849 12.5946 13.5753C12.7155 12.9657 12.6529 12.3339 12.4146 11.7599C12.1763 11.186 11.7731 10.6956 11.256 10.3508C10.7389 10.0061 10.1311 9.82247 9.50961 9.82327C8.67745 9.82669 7.88036 10.1589 7.29202 10.7474C6.70368 11.3359 6.37177 12.1331 6.36862 12.9653L6.37262 12.9623ZM13.4976 7.94227C13.4986 7.72279 13.5646 7.50852 13.6872 7.3265C13.8098 7.14448 13.9836 7.00285 14.1867 6.9195C14.3897 6.83615 14.6129 6.8148 14.828 6.85815C15.0432 6.9015 15.2407 7.00761 15.3956 7.16308C15.5505 7.31856 15.6559 7.51643 15.6985 7.73174C15.7411 7.94705 15.7189 8.17015 15.6348 8.37288C15.5508 8.57562 15.4085 8.74891 15.2261 8.87088C15.0436 8.99286 14.8291 9.05807 14.6096 9.05827C14.4632 9.05879 14.3181 9.03039 14.1826 8.97468C14.0472 8.91897 13.9241 8.83705 13.8204 8.73363C13.7167 8.63022 13.6344 8.50733 13.5784 8.37204C13.5223 8.23675 13.4935 8.09172 13.4936 7.94527L13.4976 7.94227Z" fill="var(--fill-0, #005CFF)"/>
</g>
</svg>
